<svg width="16" height="16" viewBox="0 0 16 16" fill="none" xmlns="http://www.w3.org/2000/svg">
<path fill-rule="evenodd" clip-rule="evenodd" d="M6.67327 12.9693L3.90755 12.2282C3.50505 12.1202 3.1619 11.8568 2.95358 11.4959C2.74526 11.135 2.68883 10.7061 2.7967 10.3036L4.64584 3.40417C4.75377 3.00166 5.01717 2.65851 5.37809 2.45019C5.739 2.24187 6.16789 2.18544 6.57041 2.29331L12.0904 3.77159C12.4929 3.87953 12.8361 4.14292 13.0444 4.50384C13.2527 4.86476 13.3091 5.29364 13.2013 5.69617L12.0904 9.84074C11.9885 10.2213 11.8126 10.578 11.5727 10.8906C11.3329 11.2032 11.0339 11.4655 10.6927 11.6625L8.94984 12.6687C8.60866 12.8658 8.23201 12.9937 7.84139 13.0452C7.45078 13.0966 7.05385 13.0712 6.67327 12.9693ZM3.6247 10.5253C3.60041 10.6159 3.59422 10.7104 3.60646 10.8034C3.61871 10.8964 3.64915 10.9861 3.69606 11.0674C3.74297 11.1486 3.80542 11.2198 3.87985 11.2769C3.95428 11.334 4.03922 11.3759 4.12984 11.4002L6.75155 12.103L7.30641 10.0333C7.35979 9.83396 7.45192 9.64707 7.57753 9.48333C7.70315 9.31958 7.85978 9.18218 8.0385 9.07898C8.21721 8.97577 8.41451 8.90877 8.61911 8.88182C8.82372 8.85487 9.03163 8.86848 9.23098 8.92188L11.3007 9.47617L12.3733 5.47502C12.3975 5.38441 12.4037 5.2899 12.3915 5.1969C12.3793 5.10389 12.3488 5.01421 12.3019 4.93297C12.255 4.85173 12.1925 4.78052 12.1181 4.72342C12.0437 4.66632 11.9587 4.62444 11.8681 4.60017L6.34755 3.12017C6.16463 3.0713 5.96979 3.09706 5.80585 3.19178C5.64192 3.2865 5.52229 3.44243 5.47327 3.62531L3.6247 10.5253ZM10.9624 10.2733L9.00927 9.74988C8.91865 9.7256 8.82415 9.7194 8.73114 9.73165C8.63813 9.74389 8.54845 9.77434 8.46721 9.82125C8.38597 9.86815 8.31477 9.9306 8.25766 10.005C8.20056 10.0795 8.15868 10.1644 8.13441 10.255L7.61098 12.2082C7.93147 12.1839 8.24238 12.0878 8.5207 11.927L10.2641 10.9207C10.5425 10.76 10.7812 10.5388 10.9624 10.2733Z" fill="#888888"/>
</svg>
