<svg width="28" height="28" viewBox="0 0 28 28" fill="none" xmlns="http://www.w3.org/2000/svg">
<path fill-rule="evenodd" clip-rule="evenodd" d="M21.25 23H15.5V17.25C15.5 17.1837 15.4737 17.1201 15.4268 17.0732C15.3799 17.0263 15.3163 17 15.25 17H12.75C12.6837 17 12.6201 17.0263 12.5732 17.0732C12.5263 17.1201 12.5 17.1837 12.5 17.25V23H6.75C6.28587 23 5.84075 22.8156 5.51256 22.4874C5.18437 22.1592 5 21.7141 5 21.25V13.356C5 12.416 5.429 11.526 6.172 10.92L13.01 5.34996C13.2904 5.12382 13.6398 5.00049 14 5.00049C14.3602 5.00049 14.7096 5.12382 14.99 5.34996L21.828 10.92C22.1922 11.2133 22.4864 11.5842 22.6892 12.0056C22.8919 12.427 22.9981 12.8883 23 13.356V21.25C23 21.7141 22.8156 22.1592 22.4874 22.4874C22.1592 22.8156 21.7141 23 21.25 23ZM14 6.49996C13.985 6.49908 13.9702 6.50331 13.958 6.51196L7.119 12.082C6.718 12.41 6.5 12.878 6.5 13.356V21.25C6.5 21.388 6.612 21.5 6.75 21.5H11V17.25C11 16.284 11.784 15.5 12.75 15.5H15.25C16.216 15.5 17 16.284 17 17.25V21.5H21.25C21.3163 21.5 21.3799 21.4736 21.4268 21.4267C21.4737 21.3799 21.5 21.3163 21.5 21.25V13.356C21.5 12.878 21.282 12.41 20.88 12.083L14.042 6.51296C14.0299 6.50395 14.0151 6.49936 14 6.49996Z" fill="#BBBBBB"/>
</svg>
