<svg width="28" height="28" viewBox="0 0 28 28" fill="none" xmlns="http://www.w3.org/2000/svg">
<path d="M6.53979 5.5C5.96553 5.5 5.5 6.0076 5.5 6.63374V18.538C5.5 19.1641 5.96553 19.6717 6.53979 19.6717H9.23611C10.3392 19.6717 11.72 20.1495 12.5 21V7.65664C12.5 6.63374 11.9615 5.5 10.9589 5.5H6.53979Z" fill="#EEEEEE" stroke="#EEEEEE" stroke-width="1.5" stroke-linecap="round" stroke-linejoin="round"/>
<path d="M21.4602 5.5C22.0345 5.5 22.5 6.0076 22.5 6.63374V18.538C22.5 19.1641 22.0345 19.6717 21.4602 19.6717H18.7639C17.6608 19.6717 16.28 20.1495 15.5 21V7.65664C15.5 6.63374 16.0385 5.5 17.0411 5.5H21.4602Z" fill="#EEEEEE" stroke="#EEEEEE" stroke-width="1.5" stroke-linecap="round" stroke-linejoin="round"/>
</svg>
