<svg width="28" height="28" viewBox="0 0 28 28" fill="none" xmlns="http://www.w3.org/2000/svg">
<path d="M22.4583 6.70841C22.4583 6.06409 21.936 5.54175 21.2917 5.54175H16.3333C15.0446 5.54175 14 6.58642 14 7.87508V22.4584L14.9665 21.4919C15.8417 20.6167 17.0287 20.1251 18.2664 20.1251H21.2917C21.936 20.1251 22.4583 19.6028 22.4583 18.9584V6.70841Z" stroke="#BBBBBB" stroke-width="1.5" stroke-linecap="round" stroke-linejoin="round"/>
<path d="M5.54167 6.70841C5.54167 6.06409 6.06401 5.54175 6.70834 5.54175H11.6667C12.9554 5.54175 14 6.58642 14 7.87508V22.4584L13.0335 21.4919C12.1583 20.6167 10.9714 20.1251 9.73368 20.1251H6.70834C6.06401 20.1251 5.54167 19.6028 5.54167 18.9584V6.70841Z" stroke="#BBBBBB" stroke-width="1.5" stroke-linecap="round" stroke-linejoin="round"/>
</svg>
