<svg width="20" height="20" viewBox="0 0 20 20" fill="none" xmlns="http://www.w3.org/2000/svg">
<path d="M4.79163 9.79183C4.79163 9.33158 5.16473 8.9585 5.62496 8.9585H14.375C14.8352 8.9585 15.2083 9.33158 15.2083 9.79183V14.3752C15.2083 15.2957 14.4621 16.0418 13.5416 16.0418H6.45829C5.53782 16.0418 4.79163 15.2957 4.79163 14.3752V9.79183Z" stroke="#888888" stroke-width="1.25" stroke-linecap="round" stroke-linejoin="round"/>
<path d="M6.45823 8.75016V8.61908C6.45823 7.31805 6.37996 5.86787 7.28862 4.93675C7.80681 4.40575 8.64532 3.9585 9.9999 3.9585C11.3545 3.9585 12.193 4.40575 12.7112 4.93675C13.6198 5.86787 13.5416 7.31805 13.5416 8.61908V8.75016" stroke="#888888" stroke-width="1.25" stroke-linecap="round" stroke-linejoin="round"/>
</svg>
