<svg width="16" height="16" viewBox="0 0 16 16" fill="none" xmlns="http://www.w3.org/2000/svg">
<path d="M11 7C11.4838 7.72562 11.5523 8.15572 11 9" stroke="#BBBBBB" stroke-width="1.2" stroke-linecap="round"/>
<path d="M13 4.5C14.5 6.5 14.5 9.5 13 11.5" stroke="#BBBBBB" stroke-width="1.2" stroke-linecap="round"/>
<path d="M2 9.5V6.5C2 5.94772 2.44772 5.5 3 5.5H4.62426C4.86649 5.5 5.10048 5.41208 5.28277 5.25258L8.83415 2.14512C8.89881 2.08854 9 2.13446 9 2.22038V13.7796C9 13.8655 8.89881 13.9115 8.83415 13.8549L5.28277 10.7474C5.10048 10.5879 4.86649 10.5 4.62426 10.5H3C2.44772 10.5 2 10.0523 2 9.5Z" stroke="#BBBBBB" stroke-width="1.5" stroke-linecap="round"/>
</svg>
