<svg width="28" height="28" viewBox="0 0 28 28" fill="none" xmlns="http://www.w3.org/2000/svg">
<path d="M18 5C20.7614 5 23 7.23858 23 10V18C23 20.7614 20.7614 23 18 23H10C7.23858 23 5 20.7614 5 18V10C5 7.23858 7.23858 5 10 5H18ZM10 14C9.44772 14 9 14.4477 9 15V18C9 18.5523 9.44772 19 10 19C10.5523 19 11 18.5523 11 18V15C11 14.4477 10.5523 14 10 14ZM14 11.5C13.4477 11.5 13 11.9477 13 12.5V18C13 18.5523 13.4477 19 14 19C14.5523 19 15 18.5523 15 18V12.5C15 11.9477 14.5523 11.5 14 11.5ZM18 9C17.4477 9 17 9.44772 17 10V18C17 18.5523 17.4477 19 18 19C18.5523 19 19 18.5523 19 18V10C19 9.44772 18.5523 9 18 9Z" fill="#EEEEEE"/>
</svg>
